<svg width="29" height="29" xmlns="http://www.w3.org/2000/svg">

 <g>
  <title>background</title>
  <rect fill="none" id="canvas_background" height="31" width="31" y="-1" x="-1"/>
 </g>
 <g>
  <title>Layer 1</title>
  <path id="svg_2" fill="#E8E8E8" d="m14.530647,20.044703c4.5,0 8.156,-4.473 8.156,-9.969c0,-5.496 -3.656,-9.968 -8.156,-9.968c-1.1369,0.02174 -2.2537,0.3034 -3.2649,0.8234c-1.0112,0.51999 -1.89,1.26454 -2.5691,2.1766c-1.5394,1.99573 -2.3578,4.45381 -2.322,6.974c0,5.491 3.656,9.963 8.156,9.963zm0,-18.124c3.5,0 6.344,3.659 6.344,8.156c0,4.497 -2.846,8.156 -6.344,8.156c-3.498,0 -6.344,-3.66 -6.345,-8.156c-0.001,-4.496 2.845,-8.156 6.345,-8.156zm6.344,16.312c-0.2404,0 -0.471,0.0955 -0.641,0.2655c-0.17,0.17 -0.2655,0.4006 -0.2655,0.641c0,0.2404 0.0955,0.471 0.2655,0.641c0.17,0.17 0.4006,0.2655 0.641,0.2655c1.682,0.0019 3.2946,0.6708 4.4839,1.8602c1.1893,1.1893 1.8582,2.8018 1.8601,4.4838c-0.0005,0.2401 -0.0962,0.4703 -0.266,0.6401c-0.1698,0.1697 -0.3999,0.2654 -0.64,0.2659l-23.562,0c-0.2402,-0.0005 -0.4703,-0.0962 -0.64,-0.2659c-0.1698,-0.1698 -0.2655,-0.4 -0.266,-0.6401c0.0021,-1.6819 0.6712,-3.2943 1.8604,-4.4835c1.1893,-1.1893 2.8017,-1.8584 4.4836,-1.8605c0.2402,0 0.4707,-0.0955 0.6406,-0.2654c0.1699,-0.1699 0.2654,-0.4003 0.2654,-0.6406c0,-0.2403 -0.0955,-0.4707 -0.2654,-0.6406c-0.1699,-0.1699 -0.4004,-0.2654 -0.6406,-0.2654c-2.1626,0.0019 -4.236,0.8615 -5.7654,2.3904c-1.5295,1.5289 -2.39,3.6021 -2.3926,5.7646c0.0008,0.7209 0.2875,1.412 0.7972,1.9217c0.5098,0.5098 1.2009,0.7965 1.9218,0.7973l23.563,0c0.7207,-0.0011 1.4116,-0.2879 1.9211,-0.7976c0.5095,-0.5097 0.7961,-1.2007 0.7969,-1.9214c-0.0026,-2.1623 -0.8628,-4.2353 -2.3917,-5.7642c-1.529,-1.529 -3.602,-2.3892 -5.7643,-2.3918z"/>
 </g>
</svg>